<svg id="_4_-_18" data-name="4 - 18" xmlns="http://www.w3.org/2000/svg" viewBox="0 0 583 578"><defs><style>.cls-1{fill:#fff;}.cls-2{fill:#e6e6e6;}</style></defs><rect class="cls-1" x="2.33" y="-0.66" width="576.67" height="576.66"/><path class="cls-2" d="M579,150.24c-83.21,0-150.9-67.69-150.9-150.88h27.23A123.8,123.8,0,0,0,579,123Z"/><path class="cls-2" d="M579,235.41c-130.18,0-236.07-105.9-236.07-236h27.23c0,115.13,93.69,208.79,208.84,208.79Z"/><path class="cls-2" d="M579,320.56c-177.1,0-321.2-144.08-321.2-321.2h27.26c0,162.1,131.84,294,293.94,294Z"/><path class="cls-2" d="M579,405.72c-224.06,0-406.34-182.29-406.34-406.36h27.23c0,209,170.07,379.13,379.11,379.13Z"/><path class="cls-2" d="M579,490.87C308,490.87,87.48,270.39,87.48-.64h27.26c0,256,208.25,464.28,464.26,464.28Z"/><path class="cls-2" d="M579,576C261,576,2.33,317.33,2.33-.64H29.56c0,303,246.49,549.41,549.44,549.41Z"/></svg>