<?xml version="1.0" standalone="no"?>
<!DOCTYPE svg PUBLIC "-//W3C//DTD SVG 20010904//EN"
 "http://www.w3.org/TR/2001/REC-SVG-20010904/DTD/svg10.dtd">
<svg version="1.0" xmlns="http://www.w3.org/2000/svg"
 width="512.000000pt" height="512.000000pt" viewBox="0 0 512.000000 512.000000"
 preserveAspectRatio="xMidYMid meet">

<g transform="translate(0.000000,512.000000) scale(0.100000,-0.100000)"
fill="#000000" stroke="none">
<path d="M2531 4986 c-8 -9 -10 -131 -9 -431 3 -385 4 -419 21 -429 12 -8 22
-8 35 0 16 10 17 44 20 429 2 432 1 445 -38 445 -10 0 -23 -6 -29 -14z"/>
<path d="M1270 4645 c-7 -8 -9 -23 -6 -32 19 -49 411 -716 424 -720 18 -8 46
9 50 30 3 12 -377 683 -410 725 -14 16 -43 15 -58 -3z"/>
<path d="M3792 4648 c-33 -42 -413 -713 -410 -725 4 -21 32 -38 50 -30 13 4
405 671 424 720 13 35 -40 64 -64 35z"/>
<path d="M2402 3789 c-485 -56 -911 -380 -1097 -834 -241 -585 -45 -1261 469
-1620 l66 -47 0 -223 0 -224 -31 -3 c-18 -2 -37 -11 -43 -20 -16 -26 4 -52 43
-56 l31 -3 0 -79 0 -79 -31 -3 c-18 -2 -37 -11 -43 -20 -16 -26 4 -52 43 -56
26 -3 31 -7 31 -30 0 -21 21 -49 93 -120 l92 -92 74 0 c72 0 75 -1 116 -39 87
-80 191 -115 345 -115 154 0 258 35 345 115 41 38 44 39 116 39 l74 0 93 93
92 92 0 67 0 67 31 3 c18 2 37 11 43 21 16 25 -4 51 -43 55 l-31 3 0 79 0 79
31 3 c64 6 64 70 0 76 l-31 3 0 184 0 183 66 47 c204 142 363 339 465 574 140
326 142 712 4 1046 -230 562 -810 904 -1413 834z m343 -83 c280 -43 520 -164
719 -364 232 -234 360 -522 373 -847 19 -443 -178 -842 -544 -1102 l-93 -65 0
-124 0 -124 -640 0 -640 0 0 124 0 124 -92 65 c-367 260 -564 659 -545 1102
26 610 477 1114 1082 1210 108 17 271 18 380 1z m335 -2750 l0 -44 -62 -6
c-66 -6 -1023 -56 -1070 -56 l-28 0 0 75 0 75 580 0 580 0 0 -44z m0 -205 l0
-79 -62 -6 c-66 -6 -1023 -56 -1070 -56 l-28 0 0 78 0 78 568 31 c312 17 573
31 580 32 9 1 12 -21 12 -78z m0 -218 c0 -56 -1 -58 -57 -115 l-57 -58 -455 0
-455 0 -68 67 c-38 37 -68 75 -68 83 0 14 69 20 568 47 312 17 573 31 580 32
8 1 12 -16 12 -56z m-643 -289 l48 -37 -40 7 c-41 8 -145 51 -145 60 0 4 20 6
45 6 36 0 54 -7 92 -36z"/>
<path d="M2312 3294 c-53 -26 -93 -76 -107 -135 -6 -24 -9 -26 -46 -19 -94 17
-190 -28 -244 -114 -25 -41 -30 -60 -31 -117 l-1 -69 -54 -28 c-43 -22 -59
-38 -81 -81 -16 -30 -28 -69 -28 -90 0 -43 44 -137 70 -151 17 -9 16 -12 -6
-56 -13 -26 -24 -58 -24 -71 0 -29 25 -91 46 -114 12 -14 13 -24 3 -63 -43
-173 92 -358 278 -382 40 -5 54 -11 59 -26 10 -32 64 -88 108 -111 30 -15 59
-21 106 -21 72 0 114 17 168 67 l32 31 33 -31 c53 -50 95 -67 167 -67 47 0 76
6 106 21 44 23 98 79 108 111 5 14 19 21 57 25 67 8 147 46 192 91 76 76 113
200 87 294 -9 37 -9 47 4 61 21 23 46 85 46 114 0 13 -11 45 -24 71 -22 44
-23 47 -6 56 26 14 70 108 70 151 0 21 -12 60 -28 90 -22 43 -38 59 -81 81
l-54 28 -1 69 c-1 57 -6 76 -31 117 -54 86 -150 131 -244 114 -37 -7 -40 -5
-46 19 -3 14 -17 45 -31 68 -28 48 -107 93 -163 93 -42 0 -110 -29 -140 -59
l-21 -21 -21 21 c-30 30 -98 59 -140 59 -19 0 -59 -12 -87 -26z m156 -80 c44
-29 52 -69 52 -255 0 -227 -11 -250 -129 -274 -60 -12 -83 -34 -65 -62 15 -24
106 -24 153 0 19 9 36 17 38 17 1 0 3 -88 3 -195 0 -185 -1 -195 -21 -214 -12
-11 -34 -23 -50 -26 -33 -7 -52 -28 -47 -51 6 -30 33 -39 78 -28 l40 11 0
-141 c-1 -191 -23 -240 -122 -266 -127 -35 -235 94 -179 212 11 24 26 51 33
61 17 23 0 51 -34 55 -21 2 -31 -6 -56 -43 -17 -26 -34 -67 -38 -91 l-6 -44
-37 6 c-152 28 -242 188 -180 324 25 56 62 96 114 123 77 40 216 21 264 -37
16 -19 52 -21 69 -4 23 23 12 48 -35 83 -129 95 -305 83 -416 -28 -30 -30 -41
-36 -48 -26 -27 42 14 114 68 121 14 2 31 11 37 21 16 26 -4 50 -52 62 -23 5
-54 22 -69 38 -23 22 -28 36 -28 77 0 40 5 54 28 78 44 46 80 49 130 9 55 -44
89 -57 142 -57 39 0 45 3 51 25 9 34 -8 51 -58 58 -107 14 -168 129 -119 225
25 48 57 72 109 81 65 12 100 -2 156 -62 70 -75 161 -101 190 -54 16 26 -2 47
-59 65 -94 32 -123 126 -59 193 40 42 100 47 152 13z m335 -13 c66 -64 36
-161 -58 -193 -57 -18 -75 -39 -59 -65 28 -46 134 -16 191 53 46 57 64 66 123
66 97 -1 155 -58 155 -154 0 -84 -52 -144 -133 -155 -50 -7 -67 -24 -58 -58
12 -49 124 -28 204 39 37 32 78 27 119 -16 23 -24 28 -38 28 -78 0 -41 -5 -55
-28 -77 -15 -16 -46 -33 -69 -38 -48 -12 -68 -36 -52 -62 6 -10 23 -19 37 -21
54 -7 95 -79 68 -121 -7 -10 -18 -4 -51 29 -52 52 -114 80 -191 87 -75 7 -139
-10 -205 -53 -56 -38 -73 -66 -54 -89 18 -22 48 -18 82 10 41 35 128 58 181
50 86 -15 150 -64 186 -145 62 -137 -25 -295 -179 -323 l-35 -7 -13 52 c-22
92 -79 150 -117 118 -18 -15 -20 -46 -4 -56 6 -3 20 -26 31 -51 54 -121 -53
-248 -180 -213 -99 26 -121 75 -122 266 l0 141 40 -11 c45 -11 72 -2 78 28 5
23 -14 44 -47 51 -16 3 -38 15 -50 26 -20 19 -21 29 -21 214 0 107 2 195 3
195 2 0 19 -8 38 -17 47 -24 138 -24 153 0 18 28 -5 49 -65 62 -120 24 -129
44 -129 277 0 145 3 179 18 208 35 72 128 87 185 31z"/>
<path d="M353 3729 c-7 -7 -13 -21 -13 -30 0 -9 6 -21 13 -27 41 -33 712 -413
724 -410 21 4 38 32 30 50 -5 15 -690 416 -725 425 -9 2 -23 -2 -29 -8z"/>
<path d="M4377 3534 c-197 -114 -361 -213 -364 -222 -8 -18 9 -46 30 -50 18
-4 718 400 732 422 11 18 -4 49 -26 54 -8 1 -175 -91 -372 -204z"/>
<path d="M12 2468 c-16 -16 -15 -43 2 -57 9 -8 131 -10 431 -9 385 3 419 4
429 21 8 12 8 22 0 35 -10 16 -44 17 -430 20 -318 2 -423 -1 -432 -10z"/>
<path d="M4252 2468 c-16 -16 -15 -43 2 -57 9 -8 131 -10 431 -9 385 3 419 4
429 21 8 12 8 22 0 35 -10 16 -44 17 -430 20 -318 2 -423 -1 -432 -10z"/>
<path d="M705 1415 c-192 -112 -354 -211 -360 -219 -13 -21 6 -51 32 -50 26 0
723 403 730 422 8 20 -10 47 -33 49 -10 1 -176 -90 -369 -202z"/>
<path d="M4020 1605 c-6 -8 -10 -22 -8 -32 4 -20 714 -435 737 -431 22 5 37
36 26 54 -12 18 -709 424 -729 424 -7 0 -19 -7 -26 -15z"/>
</g>
</svg>
