<?xml version="1.0" standalone="no"?>
<!DOCTYPE svg PUBLIC "-//W3C//DTD SVG 20010904//EN"
 "http://www.w3.org/TR/2001/REC-SVG-20010904/DTD/svg10.dtd">
<svg version="1.0" xmlns="http://www.w3.org/2000/svg"
 width="512.000000pt" height="512.000000pt" viewBox="0 0 512.000000 512.000000"
 preserveAspectRatio="xMidYMid meet">

<g transform="translate(0.000000,512.000000) scale(0.100000,-0.100000)"
fill="#000000" stroke="none">
<path d="M4199 4513 c-165 -84 -147 -322 30 -382 54 -18 103 -13 159 15 130
65 151 243 39 341 -67 59 -145 67 -228 26z m150 -139 c27 -34 26 -57 -2 -90
-47 -54 -127 -24 -127 47 0 66 88 95 129 43z"/>
<path d="M3933 3568 c-209 -210 -324 -332 -328 -350 -10 -39 34 -83 73 -73 40
9 672 643 672 673 0 29 -43 72 -72 72 -16 0 -111 -89 -345 -322z"/>
<path d="M827 3255 c-10 -9 -17 -31 -17 -50 0 -32 11 -41 393 -319 272 -198
400 -286 418 -286 34 0 59 29 59 68 0 29 -21 46 -387 313 -399 291 -431 310
-466 274z"/>
<path d="M2389 3149 c-100 -15 -186 -89 -214 -183 -8 -27 -15 -84 -15 -126 l0
-76 -127 -79 -128 -80 -107 -212 c-78 -155 -111 -234 -124 -289 -32 -147 -2
-315 79 -435 20 -30 167 -189 327 -354 l289 -300 1 -241 c0 -229 1 -243 21
-268 l20 -26 673 0 c571 0 675 2 692 15 20 13 21 26 27 237 4 167 13 268 33
403 l27 180 4 710 c3 477 1 722 -6 745 -15 49 -77 119 -125 141 -55 25 -148
24 -205 -1 l-43 -20 -40 36 c-22 20 -59 44 -82 55 -57 26 -157 25 -216 -2 -24
-11 -46 -16 -48 -11 -14 43 -68 105 -114 131 -95 55 -187 53 -282 -4 l-56 -34
-32 30 c-55 49 -143 72 -229 58z m118 -149 c62 -37 64 -46 61 -264 l-3 -196
-132 76 -133 76 0 117 c0 99 3 121 20 149 36 59 126 80 187 42z m427 -31 c20
-17 40 -47 46 -67 13 -50 13 -496 -1 -546 -17 -60 -82 -117 -72 -62 8 38 -7
54 -103 110 l-89 52 -3 213 c-2 196 -1 217 17 255 26 52 63 75 123 76 39 0 54
-6 82 -31z m383 -116 c68 -32 73 -51 73 -291 0 -247 -4 -262 -76 -294 -53 -23
-93 -18 -141 18 -48 36 -55 78 -51 300 3 215 8 230 79 266 43 22 71 23 116 1z
m380 -75 c36 -29 43 -73 43 -253 0 -205 -8 -237 -65 -261 -49 -20 -99 -4 -126
40 -18 28 -19 47 -17 232 3 186 5 204 23 224 11 12 29 26 40 31 26 11 82 4
102 -13z m-1228 -339 c154 -89 281 -165 281 -169 0 -5 -23 -33 -51 -64 -90
-99 -207 -135 -324 -101 -57 16 -81 35 -150 117 -24 29 -85 21 -104 -13 -20
-37 -8 -69 50 -133 114 -125 299 -157 469 -80 63 29 96 27 172 -12 64 -32 115
-86 147 -153 25 -55 26 -62 29 -293 4 -216 5 -238 23 -254 24 -22 64 -21 89 1
19 17 20 32 20 255 0 211 -2 245 -20 304 -27 86 -96 177 -178 233 -57 39 -61
43 -35 43 35 0 99 29 139 63 l31 27 19 -22 c34 -38 113 -68 182 -68 67 0 117
16 168 55 31 24 32 24 49 5 46 -51 152 -74 234 -50 l33 9 -5 -387 c-5 -353 -7
-403 -32 -567 -18 -119 -29 -246 -33 -375 l-7 -195 -577 -3 -578 -2 0 225 0
226 -114 119 c-62 65 -207 216 -320 335 -247 258 -268 290 -274 441 -5 117 5
151 116 374 l87 175 80 47 c44 25 85 47 91 47 6 1 138 -72 293 -160z"/>
<path d="M4207 2312 c-27 -30 -21 -68 18 -110 l34 -39 -34 -33 c-43 -41 -48
-90 -13 -114 35 -24 65 -19 105 18 l38 34 37 -34 c43 -39 79 -43 108 -14 31
31 26 71 -15 110 l-34 33 34 39 c40 43 46 85 17 111 -31 28 -74 21 -112 -18
l-34 -35 -36 35 c-41 40 -86 47 -113 17z"/>
<path d="M790 1730 c-39 -39 -27 -67 73 -167 101 -101 121 -110 162 -68 42 41
33 61 -68 162 -100 100 -128 112 -167 73z"/>
<path d="M1203 1658 c-100 -101 -112 -129 -73 -168 24 -24 41 -25 78 -6 37 19
167 156 177 185 10 32 -23 75 -61 79 -25 2 -42 -11 -121 -90z"/>
<path d="M861 1316 c-79 -79 -92 -97 -89 -121 2 -16 14 -37 30 -48 23 -17 30
-18 57 -7 17 6 66 50 111 96 86 90 97 117 60 154 -40 40 -68 27 -169 -74z"/>
<path d="M1162 1390 c-26 -11 -44 -51 -35 -77 3 -10 44 -57 92 -105 71 -73 91
-88 117 -88 38 0 64 27 64 66 0 25 -17 47 -94 122 -51 51 -100 92 -107 91 -8
0 -24 -4 -37 -9z"/>
</g>
</svg>
