<?xml version="1.0" standalone="no"?>
<!DOCTYPE svg PUBLIC "-//W3C//DTD SVG 20010904//EN"
 "http://www.w3.org/TR/2001/REC-SVG-20010904/DTD/svg10.dtd">
<svg version="1.0" xmlns="http://www.w3.org/2000/svg"
 width="512.000000pt" height="512.000000pt" viewBox="0 0 512.000000 512.000000"
 preserveAspectRatio="xMidYMid meet">

<g transform="translate(0.000000,512.000000) scale(0.100000,-0.100000)"
fill="#000000" stroke="none">
<path d="M710 4831 c-5 -11 -10 -33 -10 -50 0 -29 -2 -31 -40 -31 -29 0 -42
-5 -50 -21 -16 -29 4 -49 51 -49 37 0 38 -1 41 -41 6 -80 70 -80 76 -1 3 40 4
41 45 44 39 3 42 5 42 33 0 28 -3 30 -42 33 -40 3 -43 5 -43 33 0 41 -16 69
-40 69 -11 0 -24 -9 -30 -19z"/>
<path d="M2631 4816 c-8 -9 -11 -95 -9 -292 l3 -279 30 0 30 0 3 279 c2 280 0
306 -33 306 -7 0 -18 -6 -24 -14z"/>
<path d="M1495 4620 c-149 -82 -180 -102 -180 -121 0 -45 30 -47 107 -7 40 21
73 36 75 35 1 -2 -89 -73 -200 -158 -435 -333 -476 -379 -669 -754 -54 -104
-98 -184 -98 -177 0 7 -11 18 -25 24 -21 9 -29 9 -40 -3 -18 -19 -126 -394
-119 -414 8 -19 47 -19 84 0 l30 16 0 -105 c0 -92 2 -107 19 -115 13 -7 23 -7
34 2 14 10 17 35 19 135 l3 123 86 46 85 47 100 -76 c168 -127 324 -258 324
-272 0 -7 -7 -57 -15 -112 -18 -119 -20 -362 -3 -399 13 -29 52 -34 62 -8 4
10 4 63 0 118 -6 88 7 277 22 341 4 15 29 31 87 57 193 83 633 289 645 301 15
14 183 773 175 790 -2 6 -61 56 -130 111 -68 55 -141 115 -161 133 -21 18 -71
60 -113 93 l-76 61 48 166 c27 92 49 175 49 184 0 14 -29 40 -42 37 -2 0 -84
-45 -183 -99z m-38 -415 c6 -16 -151 -493 -170 -518 -16 -20 -209 -127 -231
-127 -18 0 -41 42 -34 62 3 7 48 37 101 66 l96 53 76 232 c80 242 99 276 136
256 11 -6 23 -17 26 -24z m-447 -619 c30 -38 10 -56 -188 -167 -106 -60 -201
-109 -212 -109 -30 0 -49 46 -28 67 24 23 380 223 399 223 9 0 22 -7 29 -14z"/>
<path d="M3790 4479 c-198 -182 -251 -235 -248 -252 2 -16 10 -22 30 -22 21 0
80 49 272 224 135 123 246 232 246 241 0 19 -19 40 -36 40 -7 0 -126 -104
-264 -231z"/>
<path d="M2055 4571 c-127 -58 -82 -251 59 -251 55 0 88 19 84 49 -3 24 -6 26
-51 24 -58 -4 -83 8 -91 43 -8 30 13 69 41 76 29 8 62 -9 74 -36 14 -31 34
-39 60 -26 23 13 24 22 2 67 -11 24 -30 42 -57 54 -51 23 -71 23 -121 0z"/>
<path d="M4453 4254 c-18 -9 -39 -27 -48 -40 l-15 -24 -294 0 c-332 0 -297 9
-357 -92 -33 -57 -33 -57 -89 -63 -142 -14 -181 -32 -150 -70 11 -14 25 -15
88 -9 l74 6 -31 -61 c-17 -33 -34 -61 -37 -61 -4 0 -32 15 -63 34 -31 19 -85
48 -120 66 l-65 32 -17 -21 c-10 -12 -16 -27 -13 -34 2 -7 35 -28 72 -47 332
-171 589 -462 727 -820 18 -47 39 -113 45 -147 13 -63 12 -63 -23 -136 -79
-161 -237 -377 -415 -567 -471 -502 -1077 -920 -1531 -1056 l-94 -28 -91 47
c-358 183 -614 474 -751 856 -24 67 -35 87 -51 89 -11 2 -27 -4 -34 -13 -12
-15 -10 -29 15 -103 41 -122 133 -301 210 -407 70 -98 185 -222 279 -302 l59
-49 -52 -97 c-60 -110 -48 -106 -187 -82 -120 21 -237 77 -308 148 -155 155
-186 391 -92 701 29 94 25 120 -18 114 -26 -4 -57 -86 -87 -231 -27 -133 -23
-317 9 -418 71 -219 266 -363 533 -394 l57 -7 -17 -29 -16 -29 -270 0 -270 0
-16 39 c-54 128 -249 89 -251 -50 -1 -55 23 -104 62 -124 60 -31 153 -11 180
39 10 21 17 21 308 21 l297 0 43 65 42 65 93 12 c50 7 142 22 202 34 l110 21
102 -35 c218 -77 461 -102 689 -73 161 21 337 66 424 109 58 29 65 35 65 62 0
27 -3 30 -30 29 -16 -1 -87 -22 -157 -47 -70 -26 -165 -53 -213 -62 -104 -20
-366 -23 -480 -6 -81 13 -232 48 -249 58 -5 3 33 21 85 40 189 68 442 203 689
366 447 294 855 714 1127 1158 l61 100 7 -77 c12 -127 -1 -357 -26 -459 -28
-114 -29 -144 -6 -159 41 -26 69 36 103 232 22 133 23 367 0 494 l-17 97 40
100 c69 172 95 295 95 446 0 146 -15 218 -66 319 -35 70 -120 162 -190 207
-63 41 -194 86 -274 95 -35 3 -64 11 -64 16 0 6 8 23 17 39 l17 29 273 0 273
0 14 -33 c22 -53 60 -77 121 -77 61 0 99 24 121 76 19 45 18 83 -4 123 -34 63
-113 87 -179 55z m-551 -309 c161 -34 292 -124 342 -234 64 -144 87 -350 57
-511 -15 -79 -59 -220 -69 -220 -4 0 -18 30 -30 68 -89 255 -286 531 -510 715
l-33 27 48 85 c47 82 49 85 85 85 20 0 70 -7 110 -15z m-1928 -2855 c6 0 4 -4
-4 -9 -14 -8 -89 -21 -203 -36 l-48 -6 32 63 c17 35 35 68 40 74 7 8 33 -2 91
-37 45 -27 86 -49 92 -49z"/>
<path d="M476 2767 c-15 -11 -17 -27 -14 -100 3 -76 1 -87 -14 -87 -9 0 -28
-14 -42 -31 -26 -30 -26 -32 -26 -198 0 -117 4 -171 12 -179 7 -7 41 -12 83
-12 42 0 76 5 83 12 8 8 12 62 12 179 0 155 -1 168 -21 193 -19 24 -21 39 -20
121 2 83 0 95 -17 104 -14 7 -24 7 -36 -2z m31 -183 c-3 -3 -12 -4 -19 -1 -8
3 -5 6 6 6 11 1 17 -2 13 -5z m-9 -212 l3 -142 -26 0 -25 0 0 138 c0 76 3 142
7 146 4 4 14 5 23 4 12 -3 15 -26 18 -146z"/>
<path d="M2148 853 c-41 -49 -322 -521 -323 -543 0 -20 5 -25 25 -25 19 0 35
15 69 64 61 88 291 471 291 485 0 15 -21 36 -35 36 -7 0 -19 -8 -27 -17z"/>
<path d="M3232 858 c-7 -7 -12 -17 -12 -24 0 -14 230 -397 291 -485 34 -49 50
-64 69 -64 20 0 25 5 25 25 -1 22 -282 494 -323 543 -18 20 -33 22 -50 5z"/>
<path d="M2631 776 c-8 -9 -11 -74 -9 -212 l3 -199 30 0 30 0 3 199 c2 199 -2
226 -33 226 -7 0 -18 -6 -24 -14z"/>
<path d="M4030 671 c-5 -11 -10 -33 -10 -50 0 -29 -2 -31 -40 -31 -29 0 -42
-5 -50 -21 -16 -29 4 -49 51 -49 37 0 38 -1 41 -41 6 -80 70 -80 76 -1 3 40 4
41 45 44 39 3 42 5 42 33 0 28 -3 30 -42 33 -40 3 -43 5 -43 33 0 41 -16 69
-40 69 -11 0 -24 -9 -30 -19z"/>
</g>
</svg>
