<?xml version="1.0" standalone="no"?>
<!DOCTYPE svg PUBLIC "-//W3C//DTD SVG 20010904//EN"
 "http://www.w3.org/TR/2001/REC-SVG-20010904/DTD/svg10.dtd">
<svg version="1.0" xmlns="http://www.w3.org/2000/svg"
 width="512.000000pt" height="512.000000pt" viewBox="0 0 512.000000 512.000000"
 preserveAspectRatio="xMidYMid meet">

<g transform="translate(0.000000,512.000000) scale(0.100000,-0.100000)"
fill="#000000" stroke="none">
<path d="M3595 4740 c-269 -71 -500 -132 -513 -135 -31 -8 -56 -62 -44 -96 7
-16 58 -58 146 -119 118 -81 134 -96 125 -112 -26 -49 -168 -225 -263 -326
-108 -115 -120 -138 -97 -181 8 -14 0 -27 -39 -66 -46 -45 -51 -48 -75 -37
-45 21 -69 13 -136 -41 -466 -382 -1073 -704 -1782 -943 -108 -36 -208 -75
-222 -86 -77 -60 -77 -196 0 -257 50 -39 86 -44 223 -31 948 86 1782 410 2429
945 144 118 378 354 488 490 49 61 91 113 94 117 3 4 67 -36 141 -88 74 -52
144 -94 156 -94 35 0 54 11 68 39 11 22 6 100 -40 551 -29 289 -53 532 -54
541 0 30 -39 59 -78 58 -20 0 -257 -59 -527 -129z"/>
<path d="M3905 3021 c-16 -10 -38 -27 -48 -39 -47 -52 -46 -22 -47 -1339 l0
-1243 -120 0 -120 0 0 977 c0 975 0 977 -21 1021 -13 26 -38 54 -62 70 l-41
27 -320 0 c-318 0 -321 0 -358 -23 -20 -13 -47 -40 -60 -60 l-23 -37 -3 -988
-2 -987 -120 0 -120 0 0 698 c-1 736 -1 744 -47 794 -10 11 -35 29 -56 39 -35
19 -58 20 -356 17 l-318 -3 -37 -29 c-74 -56 -76 -67 -76 -458 0 -367 2 -387
47 -407 34 -16 47 -14 77 10 l26 20 0 344 c0 189 3 350 6 359 5 14 40 16 283
16 202 0 280 -3 289 -12 9 -9 12 -178 12 -700 l0 -688 -295 0 -295 0 0 225 c0
212 -1 226 -20 245 -30 30 -83 27 -109 -6 -20 -25 -21 -39 -21 -245 l0 -219
-120 0 -120 0 0 418 c0 256 -4 431 -10 454 -6 21 -22 51 -37 68 -50 60 -52 60
-399 60 -300 0 -318 -1 -353 -21 -20 -11 -48 -36 -61 -56 l-25 -37 -3 -443 -3
-443 -169 0 c-93 0 -181 -5 -196 -10 -55 -21 -71 -78 -34 -118 l21 -22 2519 0
2519 0 21 22 c37 40 21 97 -34 118 -15 5 -104 10 -197 10 l-169 0 0 709 c0
390 -3 717 -6 726 -7 18 -55 45 -79 45 -9 0 -27 -11 -40 -25 l-25 -24 0 -716
0 -715 -290 0 -290 0 0 1245 0 1245 288 -2 287 -3 5 -413 c5 -395 6 -414 24
-428 33 -23 82 -18 105 12 20 26 21 37 21 437 0 397 -1 412 -21 454 -14 29
-35 52 -63 68 l-43 25 -319 0 c-293 0 -321 -2 -349 -19z m-497 -683 c9 -9 12
-239 12 -975 l0 -963 -295 0 -295 0 0 963 c0 736 3 966 12 975 17 17 549 17
566 0z m-2254 -1104 c8 -21 8 -661 0 -757 l-7 -77 -288 0 -289 0 0 418 c0 230
3 422 7 425 3 4 133 7 289 7 248 0 283 -2 288 -16z"/>
</g>
</svg>
