<?xml version="1.0" standalone="no"?>
<!DOCTYPE svg PUBLIC "-//W3C//DTD SVG 20010904//EN"
 "http://www.w3.org/TR/2001/REC-SVG-20010904/DTD/svg10.dtd">
<svg version="1.0" xmlns="http://www.w3.org/2000/svg"
 width="512.000000pt" height="512.000000pt" viewBox="0 0 512.000000 512.000000"
 preserveAspectRatio="xMidYMid meet">

<g transform="translate(0.000000,512.000000) scale(0.100000,-0.100000)"
fill="#000000" stroke="none">
<path d="M418 5105 c-315 -80 -493 -409 -384 -709 79 -219 277 -356 514 -356
239 0 457 169 515 400 l14 55 494 3 c478 2 495 1 527 -18 63 -38 73 -69 70
-213 l-3 -129 -54 -18 c-122 -44 -228 -170 -247 -297 l-6 -43 -62 0 c-232 0
-400 -119 -452 -320 -20 -78 -15 -172 14 -248 l20 -52 -52 0 c-85 0 -166 -19
-255 -61 -239 -111 -368 -384 -306 -647 35 -147 147 -294 277 -362 l37 -20
-30 -57 c-96 -187 -34 -421 141 -533 84 -54 154 -70 300 -70 l129 0 16 -57
c49 -171 173 -300 339 -354 l66 -22 0 -134 c0 -144 -9 -180 -53 -205 -15 -9
-86 -15 -220 -18 -194 -5 -199 -6 -218 -29 -25 -30 -24 -76 1 -101 19 -19 33
-20 218 -20 108 0 214 5 234 10 53 15 118 68 153 125 30 48 30 50 33 212 3
145 5 163 20 163 40 1 156 51 216 94 36 25 79 66 97 91 18 25 35 45 38 45 3 0
20 -19 36 -41 60 -82 178 -157 282 -180 l52 -12 3 -162 c3 -160 3 -162 33
-210 35 -57 100 -110 153 -125 23 -6 205 -10 479 -10 l443 0 6 -28 c55 -250
250 -422 499 -439 382 -25 672 361 541 721 -137 378 -621 480 -897 189 -78
-83 -111 -142 -139 -250 l-11 -43 -435 0 c-477 0 -478 0 -509 60 -11 22 -15
63 -15 164 l0 135 43 12 c169 45 311 187 362 362 l16 57 127 0 c190 0 278 31
374 132 121 127 149 315 69 470 l-29 57 51 29 c103 59 218 202 253 317 25 78
30 228 10 305 -62 246 -272 421 -527 437 l-86 6 19 50 c29 75 34 169 14 247
-52 201 -220 320 -452 320 l-62 0 -6 43 c-18 117 -128 254 -235 293 l-51 18 0
125 c0 143 12 180 69 218 l34 23 483 0 483 0 11 -42 c28 -109 61 -168 139
-251 275 -291 760 -189 897 188 34 93 41 202 20 296 -27 122 -66 164 -130 139
-43 -16 -52 -51 -32 -116 27 -86 30 -151 12 -224 -44 -172 -176 -284 -350
-297 -237 -18 -431 176 -413 413 19 259 266 419 520 338 60 -20 92 -12 112 26
34 66 -8 108 -134 136 -178 40 -374 -20 -503 -153 -66 -68 -119 -172 -142
-275 l-6 -28 -488 0 c-568 0 -551 2 -644 -90 -74 -75 -88 -120 -88 -290 l0
-126 -51 -13 c-58 -15 -142 -67 -182 -114 l-28 -32 -24 31 c-31 39 -107 89
-169 110 l-46 16 0 132 c0 162 -13 205 -82 281 -35 39 -64 60 -104 74 -53 20
-75 21 -554 21 l-500 0 -6 28 c-43 195 -169 343 -350 409 -87 31 -222 39 -306
18z m248 -161 c140 -38 252 -184 262 -340 22 -349 -390 -546 -646 -309 -202
187 -152 519 94 632 96 44 177 48 290 17z m1672 -970 c49 -20 100 -70 123
-119 16 -34 19 -66 19 -222 0 -101 -4 -183 -8 -183 -4 0 -29 13 -55 29 -58 37
-103 114 -113 190 -12 93 -76 130 -131 75 -23 -24 -25 -31 -20 -87 2 -34 15
-88 27 -120 39 -104 164 -215 273 -242 l27 -7 0 -474 0 -473 -47 29 c-89 54
-232 76 -293 45 -36 -19 -49 -59 -29 -94 20 -36 55 -51 119 -51 104 0 197 -65
234 -162 15 -38 17 -85 14 -383 l-3 -340 -28 -55 c-37 -72 -96 -131 -165 -166
-52 -26 -67 -29 -157 -29 -84 0 -107 4 -147 24 -75 37 -134 95 -170 169 -32
65 -33 71 -38 225 -5 152 -6 160 -29 178 -24 19 -56 24 -86 13 -27 -11 -45
-60 -45 -124 l0 -60 -108 0 c-131 0 -192 16 -251 67 -105 89 -122 256 -39 358
l30 36 297 -3 c291 -3 297 -3 346 -28 70 -34 139 -108 166 -177 16 -44 23 -89
28 -186 6 -121 7 -130 31 -149 30 -24 77 -18 103 13 23 28 24 227 2 314 -44
166 -175 304 -340 356 -27 8 -145 14 -360 18 l-320 6 -60 29 c-161 79 -258
266 -228 439 31 181 175 321 358 347 39 5 172 10 297 10 l227 0 20 26 c28 35
26 69 -4 99 -22 23 -31 25 -129 25 l-104 0 -28 33 c-42 49 -57 95 -57 167 0
74 18 122 65 175 58 67 95 79 262 85 147 5 148 6 172 33 19 22 24 40 24 85 1
107 49 188 134 228 60 28 139 32 194 8z m625 3 c89 -38 136 -111 146 -229 10
-118 15 -121 199 -128 125 -5 153 -9 188 -28 79 -41 144 -146 144 -232 0 -47
-29 -124 -60 -162 l-31 -38 -105 0 c-98 0 -107 -2 -129 -25 -30 -29 -32 -64
-5 -98 l20 -25 277 -4 c258 -4 282 -6 334 -26 164 -65 262 -193 276 -363 14
-166 -77 -328 -225 -401 l-66 -33 -321 -6 c-215 -4 -333 -10 -360 -18 -165
-52 -296 -190 -340 -356 -22 -87 -21 -286 3 -314 25 -31 72 -37 102 -13 24 19
25 28 31 149 5 97 12 142 28 186 27 69 96 143 166 177 49 25 55 25 351 28
l301 3 26 -38 c37 -54 47 -86 47 -150 0 -85 -18 -132 -75 -190 -65 -66 -118
-83 -267 -83 l-108 0 0 60 c0 64 -18 113 -45 124 -30 11 -62 6 -86 -13 -23
-18 -24 -26 -29 -178 -5 -154 -6 -160 -38 -225 -36 -74 -95 -132 -170 -169
-40 -20 -63 -24 -147 -24 -95 0 -103 2 -163 34 -75 41 -125 94 -161 170 l-26
56 -3 327 c-2 206 1 341 7 366 16 56 63 116 117 148 35 21 66 29 127 34 71 6
84 11 104 34 54 63 9 126 -91 126 -88 0 -200 -35 -248 -78 -17 -14 -18 8 -18
460 l0 475 43 12 c66 20 119 55 180 120 64 69 96 144 104 238 5 56 3 63 -20
87 -15 15 -37 26 -52 26 -32 0 -75 -41 -75 -73 0 -53 -32 -130 -73 -174 -35
-38 -83 -73 -102 -73 -11 0 -5 343 7 384 15 51 93 131 139 145 50 14 135 13
172 -2z"/>
<path d="M1815 3408 c-47 -25 -59 -78 -27 -118 14 -18 33 -24 99 -30 48 -5 97
-17 122 -29 179 -92 209 -335 57 -468 -78 -68 -107 -73 -450 -73 l-303 0 -21
-23 c-28 -30 -29 -80 -2 -107 20 -20 30 -21 363 -18 l342 3 65 31 c237 113
327 387 203 617 -34 62 -127 148 -195 180 -86 41 -211 58 -253 35z"/>
<path d="M3150 3406 c-78 -17 -142 -51 -206 -108 -180 -166 -192 -436 -27
-619 47 -51 120 -99 154 -99 72 0 102 93 44 134 -68 49 -114 99 -135 148 -81
188 55 398 258 398 81 0 124 42 108 105 -13 50 -84 66 -196 41z"/>
<path d="M3366 2669 c-34 -27 -36 -77 -3 -107 22 -21 31 -22 233 -22 207 0
211 0 232 23 31 33 29 80 -4 106 -25 20 -39 21 -229 21 -190 0 -204 -1 -229
-21z"/>
<path d="M401 1064 c-221 -59 -382 -257 -398 -489 -21 -321 251 -593 572 -572
249 17 444 189 499 440 l6 27 104 0 c101 0 105 1 125 26 24 30 26 43 10 77
-17 37 -50 47 -149 47 l-89 0 -11 43 c-28 108 -61 167 -139 250 -106 112 -237
168 -390 166 -47 0 -110 -7 -140 -15z m311 -172 c79 -38 149 -110 186 -190 24
-50 27 -69 27 -162 0 -95 -3 -110 -28 -163 -93 -189 -303 -270 -504 -195 -81
30 -181 130 -211 211 -66 175 -15 358 127 461 80 58 143 77 247 73 79 -2 100
-7 156 -35z"/>
</g>
</svg>
