<?xml version="1.0" encoding="UTF-8"?>
<!DOCTYPE svg PUBLIC "-//W3C//DTD SVG 1.1//EN" "http://www.w3.org/Graphics/SVG/1.1/DTD/svg11.dtd">
<svg xmlns="http://www.w3.org/2000/svg" version="1.1" width="512px" height="512px" style="shape-rendering:geometricPrecision; text-rendering:geometricPrecision; image-rendering:optimizeQuality; fill-rule:evenodd; clip-rule:evenodd" xmlns:xlink="http://www.w3.org/1999/xlink">
<g><path style="opacity:0.986" fill="#fdd1b0" d="M 122.5,38.5 C 151.788,35.6599 171.288,47.9932 181,75.5C 185.504,98.9766 178.004,117.477 158.5,131C 132.112,143.608 109.612,138.775 91,116.5C 79.6667,97.5 79.6667,78.5 91,59.5C 99.1441,48.8528 109.644,41.8528 122.5,38.5 Z"/></g>
<g><path style="opacity:0.986" fill="#fdd1b0" d="M 368.5,38.5 C 397.788,35.6599 417.288,47.9932 427,75.5C 431.504,98.9766 424.004,117.477 404.5,131C 378.112,143.608 355.612,138.775 337,116.5C 325.667,97.5 325.667,78.5 337,59.5C 345.144,48.8528 355.644,41.8528 368.5,38.5 Z"/></g>
<g><path style="opacity:1" fill="#fdcfb0" d="M 285.5,96.5 C 277.833,103.5 270.5,110.833 263.5,118.5C 260.129,116.064 257.462,113.064 255.5,109.5C 255.5,105.5 255.5,101.5 255.5,97.5C 260.842,88.5465 268.508,86.0465 278.5,90C 281.331,91.6657 283.664,93.8324 285.5,96.5 Z"/></g>
<g><path style="opacity:1" fill="#f5ccb1" d="M 255.5,97.5 C 255.5,101.5 255.5,105.5 255.5,109.5C 253.538,113.064 250.871,116.064 247.5,118.5C 240.5,110.833 233.167,103.5 225.5,96.5C 231.404,88.5185 239.07,86.3518 248.5,90C 251.412,92.0147 253.745,94.5147 255.5,97.5 Z"/></g>
<g><path style="opacity:0.992" fill="#6f81b5" d="M 225.5,96.5 C 233.167,103.5 240.5,110.833 247.5,118.5C 226.202,140.299 204.702,161.965 183,183.5C 182.5,197.163 182.333,210.829 182.5,224.5C 173.268,221.447 167.602,224.613 165.5,234C 165.615,236.732 166.448,239.232 168,241.5C 173.432,246.425 178.265,251.758 182.5,257.5C 182.5,271.167 182.5,284.833 182.5,298.5C 149.167,298.5 115.833,298.5 82.5,298.5C 82.6667,261.498 82.5,224.498 82,187.5C 67.9652,201.702 53.7985,215.702 39.5,229.5C 31.8333,222.5 24.5,215.167 17.5,207.5C 37.9936,186.173 58.9936,165.34 80.5,145C 113.081,143.681 145.748,143.014 178.5,143C 194.035,127.298 209.701,111.798 225.5,96.5 Z"/></g>
<g><path style="opacity:0.997" fill="#fdaea8" d="M 285.5,96.5 C 301.299,111.798 316.965,127.298 332.5,143C 365.252,143.014 397.919,143.681 430.5,145C 452.34,165.673 473.673,186.84 494.5,208.5C 486.554,215.109 478.887,222.109 471.5,229.5C 459.535,218.035 447.702,206.369 436,194.5C 444.074,254.521 452.574,314.521 461.5,374.5C 450.167,374.5 438.833,374.5 427.5,374.5C 413.5,374.5 399.5,374.5 385.5,374.5C 380.5,374.5 375.5,374.5 370.5,374.5C 370.831,400.672 370.498,426.672 369.5,452.5C 369.5,426.5 369.5,400.5 369.5,374.5C 355.833,374.5 342.167,374.5 328.5,374.5C 317.5,374.5 306.5,374.5 295.5,374.5C 300.26,341.847 304.927,309.181 309.5,276.5C 320.098,264.399 331.265,252.733 343,241.5C 347.967,231.434 344.967,225.434 334,223.5C 331.7,223.494 329.534,223.994 327.5,225C 323.631,229.037 319.631,232.87 315.5,236.5C 318.799,217.242 321.299,197.909 323,178.5C 302.965,158.632 283.132,138.632 263.5,118.5C 270.5,110.833 277.833,103.5 285.5,96.5 Z"/></g>
<g><path style="opacity:0.981" fill="#fdd1b0" d="M 246.5,179.5 C 277.815,177.651 293.315,192.318 293,223.5C 286.575,247.227 271.075,257.394 246.5,254C 225.599,247.043 216.099,232.543 218,210.5C 221.473,194.531 230.973,184.198 246.5,179.5 Z"/></g>
<g><path style="opacity:1" fill="#f5cdb1" d="M 17.5,207.5 C 24.5,215.167 31.8333,222.5 39.5,229.5C 32.193,238.337 23.5263,239.837 13.5,234C 8.78037,227.19 8.28037,220.023 12,212.5C 13.7038,210.627 15.5372,208.96 17.5,207.5 Z"/></g>
<g><path style="opacity:1" fill="#fdcfb0" d="M 494.5,208.5 C 501.117,213.558 503.284,220.225 501,228.5C 496.652,236.915 489.819,239.748 480.5,237C 476.725,235.389 473.725,232.889 471.5,229.5C 478.887,222.109 486.554,215.109 494.5,208.5 Z"/></g>
<g><path style="opacity:0.961" fill="#fcd0b1" d="M 182.5,224.5 C 195.114,235.447 207.114,247.113 218.5,259.5C 217.546,270.115 217.213,280.782 217.5,291.5C 205.833,280.167 194.167,268.833 182.5,257.5C 178.265,251.758 173.432,246.425 168,241.5C 166.448,239.232 165.615,236.732 165.5,234C 167.602,224.613 173.268,221.447 182.5,224.5 Z"/></g>
<g><path style="opacity:0.978" fill="#fdd0b1" d="M 309.5,276.5 C 304.167,281.5 298.833,286.5 293.5,291.5C 293.787,280.782 293.454,270.115 292.5,259.5C 299.833,251.5 307.5,243.833 315.5,236.5C 319.631,232.87 323.631,229.037 327.5,225C 329.534,223.994 331.7,223.494 334,223.5C 344.967,225.434 347.967,231.434 343,241.5C 331.265,252.733 320.098,264.399 309.5,276.5 Z"/></g>
<g><path style="opacity:0.991" fill="#7ed3f8" d="M 292.5,259.5 C 293.454,270.115 293.787,280.782 293.5,291.5C 293.5,311.833 293.5,332.167 293.5,352.5C 268.167,352.5 242.833,352.5 217.5,352.5C 217.5,332.167 217.5,311.833 217.5,291.5C 217.213,280.782 217.546,270.115 218.5,259.5C 243.167,258.167 267.833,258.167 292.5,259.5 Z"/></g>
<g><path style="opacity:0.999" fill="#496186" d="M 82.5,298.5 C 115.833,298.5 149.167,298.5 182.5,298.5C 182.5,348.5 182.5,398.5 182.5,448.5C 168.5,448.5 154.5,448.5 140.5,448.5C 140.5,405.167 140.5,361.833 140.5,318.5C 135.167,318.5 129.833,318.5 124.5,318.5C 124.5,361.833 124.5,405.167 124.5,448.5C 110.5,448.5 96.5,448.5 82.5,448.5C 82.5,398.5 82.5,348.5 82.5,298.5 Z"/></g>
<g><path style="opacity:0.979" fill="#6f81b5" d="M 217.5,352.5 C 242.833,352.5 268.167,352.5 293.5,352.5C 293.5,363.167 293.5,373.833 293.5,384.5C 282.833,384.5 272.167,384.5 261.5,384.5C 261.5,378.5 261.5,372.5 261.5,366.5C 257.5,366.5 253.5,366.5 249.5,366.5C 249.5,372.5 249.5,378.5 249.5,384.5C 238.833,384.5 228.167,384.5 217.5,384.5C 217.5,373.833 217.5,363.167 217.5,352.5 Z"/></g>
<g><path style="opacity:0.994" fill="#fdd0b1" d="M 328.5,374.5 C 342.167,374.5 355.833,374.5 369.5,374.5C 369.5,400.5 369.5,426.5 369.5,452.5C 369.329,462.178 364.662,468.678 355.5,472C 344.337,474.729 335.837,471.229 330,461.5C 328.524,432.563 328.024,403.563 328.5,374.5 Z"/></g>
<g><path style="opacity:0.975" fill="#fdd1b0" d="M 385.5,374.5 C 399.5,374.5 413.5,374.5 427.5,374.5C 427.667,402.169 427.5,429.835 427,457.5C 422.34,469.75 413.507,474.583 400.5,472C 392.322,469.498 387.488,463.998 386,455.5C 385.5,428.502 385.333,401.502 385.5,374.5 Z"/></g>
<g><path style="opacity:0.973" fill="#fcd0b1" d="M 217.5,384.5 C 228.167,384.5 238.833,384.5 249.5,384.5C 249.667,410.502 249.5,436.502 249,462.5C 244.527,471.482 237.36,474.649 227.5,472C 222.6,470.098 219.433,466.598 218,461.5C 217.5,435.835 217.333,410.169 217.5,384.5 Z"/></g>
<g><path style="opacity:0.974" fill="#fcd0b1" d="M 261.5,384.5 C 272.167,384.5 282.833,384.5 293.5,384.5C 293.667,410.169 293.5,435.835 293,461.5C 287.521,472.806 279.021,475.639 267.5,470C 264.894,468.062 263.061,465.562 262,462.5C 261.5,436.502 261.333,410.502 261.5,384.5 Z"/></g>
<g><path style="opacity:0.965" fill="#fdd1b1" d="M 82.5,448.5 C 96.5,448.5 110.5,448.5 124.5,448.5C 124.191,466.97 114.858,474.803 96.5,472C 86.2434,467.561 81.5767,459.728 82.5,448.5 Z"/></g>
<g><path style="opacity:0.965" fill="#fdd1b1" d="M 140.5,448.5 C 154.5,448.5 168.5,448.5 182.5,448.5C 182.191,466.97 172.858,474.803 154.5,472C 144.243,467.561 139.577,459.728 140.5,448.5 Z"/></g>
</svg>
