<?xml version="1.0" standalone="no"?>
<!DOCTYPE svg PUBLIC "-//W3C//DTD SVG 20010904//EN"
 "http://www.w3.org/TR/2001/REC-SVG-20010904/DTD/svg10.dtd">
<svg version="1.0" xmlns="http://www.w3.org/2000/svg"
 width="512.000000pt" height="512.000000pt" viewBox="0 0 512.000000 512.000000"
 preserveAspectRatio="xMidYMid meet">

<g transform="translate(0.000000,512.000000) scale(0.100000,-0.100000)"
fill="#000000" stroke="none">
<path d="M840 4764 c-27 -12 -51 -38 -65 -71 -8 -18 -19 -33 -24 -33 -6 0 -20
-9 -31 -20 -24 -24 -27 -107 -7 -185 15 -57 33 -59 29 -3 -2 29 2 38 17 43 20
6 66 54 73 77 3 8 14 5 36 -11 43 -30 135 -62 200 -68 l53 -6 -6 -37 c-5 -27
-2 -40 10 -50 8 -7 17 -11 19 -9 2 2 9 46 15 97 14 112 5 157 -42 203 -17 18
-51 41 -75 51 -44 20 -173 33 -202 22z"/>
<path d="M1570 4750 c-24 -24 -25 -38 -4 -68 l15 -22 1408 0 c1081 0 1410 3
1419 12 18 18 14 63 -6 81 -17 16 -130 17 -1415 17 -1384 0 -1397 0 -1417 -20z"/>
<path d="M2202 4127 c-121 -194 -224 -359 -227 -367 -3 -9 3 -20 13 -27 18
-10 38 20 235 351 119 199 217 368 219 376 2 7 -2 14 -8 16 -6 3 -110 -154
-232 -349z"/>
<path d="M799 4423 c-12 -15 -12 -16 4 -10 10 4 37 7 60 7 31 0 38 3 27 10
-24 15 -76 12 -91 -7z"/>
<path d="M970 4430 c-11 -7 -4 -10 27 -10 23 0 50 -3 60 -7 16 -6 16 -5 4 10
-15 19 -67 22 -91 7z"/>
<path d="M830 4390 c0 -5 7 -10 16 -10 8 0 12 5 9 10 -3 6 -10 10 -16 10 -5 0
-9 -4 -9 -10z"/>
<path d="M1000 4390 c0 -5 7 -10 15 -10 8 0 15 5 15 10 0 6 -7 10 -15 10 -8 0
-15 -4 -15 -10z"/>
<path d="M3153 4372 c-57 -14 -103 -31 -103 -37 0 -6 11 -22 25 -35 14 -13 25
-29 25 -35 0 -7 -53 -62 -119 -123 l-118 -111 -112 105 c-84 79 -115 103 -127
96 -8 -5 -71 -59 -140 -121 -124 -112 -144 -143 -99 -149 13 -2 56 30 130 97
61 55 114 101 119 101 6 0 56 -45 111 -100 56 -55 110 -100 119 -100 9 0 76
58 149 130 l133 129 32 -32 c22 -21 35 -28 42 -21 14 14 71 215 64 225 -7 12
-13 11 -131 -19z"/>
<path d="M544 3725 c4 -122 -5 -197 -39 -342 -4 -16 -15 -24 -41 -29 l-36 -7
36 -36 36 -37 -40 -209 c-22 -116 -40 -216 -40 -222 0 -7 10 -13 23 -13 23 0
24 4 55 253 23 181 41 285 65 368 l33 115 -28 145 -27 144 3 -130z"/>
<path d="M1954 3691 c-33 -15 -50 -34 -97 -112 l-57 -94 22 -17 c22 -16 23
-15 39 9 10 14 15 32 12 39 -9 24 38 108 84 151 25 24 44 43 42 42 -2 0 -22
-9 -45 -18z"/>
<path d="M670 3155 c0 -12 15 -15 75 -15 60 0 75 3 75 15 0 12 -15 15 -75 15
-60 0 -75 -3 -75 -15z"/>
<path d="M1040 3155 c0 -12 14 -15 70 -15 56 0 70 3 70 15 0 12 -14 15 -70 15
-56 0 -70 -3 -70 -15z"/>
<path d="M1570 2980 c-24 -24 -25 -38 -4 -68 l15 -22 1404 0 c1263 0 1405 2
1419 16 21 21 20 57 -2 77 -17 16 -130 17 -1415 17 -1384 0 -1397 0 -1417 -20z"/>
<path d="M810 2885 c-42 -31 -119 -55 -177 -55 l-43 0 5 -87 c3 -49 12 -324
20 -613 20 -699 23 -770 41 -770 18 0 18 1 -7 -92 -12 -43 -18 -89 -15 -103
20 -79 212 -70 232 11 4 17 -2 54 -17 101 -15 50 -19 77 -12 81 6 5 13 153 17
431 6 378 10 450 37 670 16 135 29 255 29 265 0 58 13 -14 35 -191 41 -330 45
-408 45 -885 1 -452 1 -458 22 -469 11 -6 34 -8 50 -5 22 4 38 0 62 -19 18
-14 36 -25 39 -25 4 0 7 22 7 48 0 54 16 157 30 187 4 11 16 281 24 600 9 319
19 644 23 723 l6 142 -45 0 c-60 0 -141 25 -176 55 -27 22 -39 25 -114 25 -74
0 -88 -3 -118 -25z"/>
<path d="M3476 2545 c-58 -21 -88 -46 -113 -95 -38 -74 -24 -207 38 -356 37
-88 49 -95 154 -98 118 -2 141 7 171 67 43 83 64 157 71 238 8 103 -1 143 -44
190 -57 63 -183 88 -277 54z"/>
<path d="M2368 2496 c-22 -8 -39 -23 -53 -49 -15 -28 -34 -44 -75 -63 -104
-49 -134 -94 -133 -199 0 -84 14 -136 59 -232 32 -67 38 -73 77 -84 23 -6 74
-9 114 -7 65 3 72 1 77 -17 3 -11 6 -22 6 -25 0 -3 -44 -5 -97 -5 -84 -1 -106
-4 -155 -27 -31 -14 -61 -34 -66 -45 -6 -10 -41 -28 -80 -42 -83 -28 -138 -69
-147 -111 -10 -46 31 -80 135 -113 100 -31 173 -74 194 -115 20 -38 33 -128
42 -277 l6 -120 -30 41 c-39 54 -88 91 -152 115 -46 17 -78 19 -370 19 -379 0
-395 -3 -490 -99 -85 -86 -90 -111 -90 -429 l0 -262 580 0 580 0 0 185 0 185
35 0 35 0 0 -185 0 -185 585 0 585 0 0 185 0 185 35 0 35 0 0 -185 0 -185 580
0 580 0 0 266 c0 258 -1 267 -24 327 -14 34 -29 103 -35 152 -20 164 -31 183
-143 239 -59 29 -63 33 -71 76 -5 27 -3 128 4 247 12 212 9 286 -17 365 -16
50 -71 108 -103 108 -10 0 -40 22 -67 49 -74 74 -136 85 -226 40 -146 -74
-193 -207 -170 -488 7 -80 12 -165 12 -188 l0 -42 -32 7 c-46 10 -617 9 -653
-1 -29 -9 -27 -10 47 -36 99 -36 156 -73 174 -117 17 -40 30 -139 39 -289 l7
-110 -29 40 c-45 61 -95 101 -159 124 -55 21 -70 22 -388 19 l-331 -3 -50 -27
c-48 -25 -120 -92 -144 -133 -9 -16 -11 6 -6 100 8 142 21 235 40 281 18 45
88 88 195 121 58 18 95 37 117 58 l32 31 -18 39 c-19 42 -62 72 -136 95 -51
16 -67 30 -34 30 14 0 44 12 67 27 51 33 55 61 12 85 -38 22 -38 39 2 101 l32
50 22 -109 c13 -68 34 -134 55 -176 33 -67 33 -67 89 -79 72 -16 195 0 215 27
8 11 24 44 36 74 111 291 50 454 -170 455 -93 0 -142 -16 -187 -61 l-34 -35
-11 28 c-14 38 -34 59 -101 104 -75 51 -100 89 -109 162 -11 95 -70 139 -151
113z"/>
<path d="M1645 2181 c-79 -21 -139 -75 -151 -138 -9 -47 2 -176 20 -234 27
-87 67 -160 93 -170 45 -17 129 -21 187 -9 l58 12 33 71 c37 78 65 198 65 274
0 52 -26 118 -56 145 -48 42 -178 68 -249 49z"/>
</g>
</svg>
