<?xml version="1.0" standalone="no"?>
<!DOCTYPE svg PUBLIC "-//W3C//DTD SVG 20010904//EN"
 "http://www.w3.org/TR/2001/REC-SVG-20010904/DTD/svg10.dtd">
<svg version="1.0" xmlns="http://www.w3.org/2000/svg"
 width="512.000000pt" height="512.000000pt" viewBox="0 0 512.000000 512.000000"
 preserveAspectRatio="xMidYMid meet">

<g transform="translate(0.000000,512.000000) scale(0.100000,-0.100000)"
fill="#000000" stroke="none">
<path d="M3864 4785 c-98 -18 -135 -30 -237 -82 -96 -50 -209 -147 -274 -236
-20 -29 -40 -54 -44 -57 -11 -9 -58 -107 -63 -131 -2 -13 -11 -53 -20 -89 -50
-205 -18 -415 92 -605 19 -33 76 -101 126 -150 73 -73 109 -100 183 -138 132
-68 220 -90 368 -90 83 -1 141 5 190 17 39 10 81 20 94 22 24 5 122 52 131 63
3 4 28 24 57 44 241 175 369 487 319 776 -31 177 -97 304 -225 432 -127 126
-255 194 -426 224 -104 18 -174 18 -271 0z m267 -172 c15 -14 22 -38 26 -84 3
-35 10 -69 15 -76 20 -25 119 -73 150 -73 18 0 47 9 63 20 40 27 86 26 111 -2
32 -37 104 -165 104 -186 0 -29 -33 -66 -84 -93 l-46 -24 0 -95 0 -95 46 -24
c51 -27 84 -64 84 -93 0 -21 -72 -149 -104 -185 -25 -29 -71 -30 -111 -3 -16
11 -45 20 -63 20 -31 0 -130 -48 -150 -73 -5 -7 -12 -41 -15 -76 -8 -97 -21
-106 -157 -106 -136 0 -149 9 -157 106 -3 35 -10 69 -15 76 -20 25 -119 73
-150 73 -18 0 -46 -9 -63 -20 -40 -27 -86 -26 -111 3 -32 36 -104 164 -104
185 0 29 33 66 84 93 l46 24 0 95 0 95 -46 24 c-51 27 -84 64 -84 93 0 22 72
151 103 186 26 28 72 29 112 2 42 -28 87 -25 150 11 65 37 70 45 78 123 6 61
24 92 61 100 11 2 63 3 114 2 78 -2 96 -5 113 -23z"/>
<path d="M3887 4305 c-85 -32 -162 -111 -192 -195 -20 -56 -19 -165 2 -226 23
-67 120 -164 187 -187 63 -22 169 -22 232 0 70 24 165 120 188 191 25 74 19
190 -12 254 -30 60 -90 120 -150 150 -59 29 -195 36 -255 13z"/>
<path d="M1084 4548 c-39 -18 -44 -49 -44 -263 l0 -205 -125 0 c-71 0 -135 -5
-149 -11 -54 -25 -57 -108 -5 -134 35 -19 354 -22 392 -4 43 20 47 45 47 309
0 264 -4 289 -47 309 -29 13 -41 13 -69 -1z"/>
<path d="M2428 3510 c-260 -41 -487 -177 -638 -380 -66 -89 -134 -235 -162
-346 -31 -126 -31 -322 0 -448 40 -161 142 -345 250 -449 l40 -39 4 109 c4
118 20 164 75 214 60 56 86 63 251 67 l152 4 0 89 c0 74 -3 89 -16 89 -27 0
-119 101 -132 146 -7 24 -12 103 -12 191 0 134 2 153 23 193 16 33 34 51 67
68 41 20 57 22 230 22 173 0 189 -2 230 -22 33 -17 51 -35 68 -68 20 -40 22
-59 22 -193 0 -87 -5 -166 -12 -189 -14 -48 -90 -136 -124 -144 -23 -6 -24
-10 -24 -94 l0 -88 153 -4 c164 -4 190 -11 250 -67 54 -49 70 -96 76 -215 l6
-109 55 60 c109 117 193 273 232 429 31 125 31 323 0 448 -54 216 -186 416
-362 546 -88 65 -234 134 -340 160 -97 23 -277 33 -362 20z"/>
<path d="M1305 1575 c-24 -24 -25 -28 -25 -184 l0 -160 -25 24 c-23 24 -31 25
-135 25 -104 0 -112 -1 -135 -25 l-25 -24 0 -296 0 -295 320 0 320 0 0 455 0
456 -25 24 c-23 24 -31 25 -135 25 -104 0 -112 -1 -135 -25z"/>
</g>
</svg>
