<?xml version="1.0" standalone="no"?>
<!DOCTYPE svg PUBLIC "-//W3C//DTD SVG 20010904//EN"
 "http://www.w3.org/TR/2001/REC-SVG-20010904/DTD/svg10.dtd">
<svg version="1.0" xmlns="http://www.w3.org/2000/svg"
 width="512.000000pt" height="512.000000pt" viewBox="0 0 512.000000 512.000000"
 preserveAspectRatio="xMidYMid meet">

<g transform="translate(0.000000,512.000000) scale(0.100000,-0.100000)"
fill="#000000" stroke="none">
<path d="M4417 4989 c-10 -6 -135 -245 -278 -531 -276 -552 -275 -550 -227
-590 16 -14 39 -18 109 -18 l89 0 0 -364 0 -365 24 -28 24 -28 274 -3 c284 -3
322 -1 354 22 18 14 19 34 24 388 l5 373 92 3 c86 3 94 5 113 29 11 14 20 34
20 44 0 32 -518 1057 -539 1069 -25 13 -61 12 -84 -1z m226 -614 c97 -195 177
-360 177 -365 0 -6 -28 -10 -63 -10 -107 0 -101 22 -107 -409 l-5 -366 -187
-3 -188 -2 0 363 c0 353 -1 365 -21 391 -18 23 -27 26 -85 26 -36 0 -64 4 -64
10 0 13 353 720 360 720 3 0 85 -160 183 -355z"/>
<path d="M3025 4600 c-11 -4 -158 -147 -327 -317 -235 -236 -308 -315 -308
-333 0 -14 23 -134 52 -268 l52 -243 -36 -36 -37 -36 -35 31 c-65 56 -187 134
-290 183 -667 318 -1477 30 -1797 -639 -90 -187 -131 -374 -131 -592 1 -218
46 -409 142 -600 147 -293 419 -541 718 -655 l72 -28 0 -452 0 -452 23 -21
c23 -22 29 -22 319 -22 163 0 304 3 313 6 43 17 45 41 45 483 l0 420 43 11
c70 18 139 42 196 66 29 13 55 24 57 24 2 0 5 -219 6 -486 l3 -486 24 -19 c22
-18 43 -19 323 -19 l299 0 24 25 25 24 0 819 c0 649 -3 822 -13 836 -11 14 -7
33 20 114 45 136 64 259 64 416 0 142 -10 224 -41 347 -42 165 -142 365 -248
495 l-50 62 37 36 37 36 232 -50 c128 -28 249 -50 269 -50 35 0 53 16 334 296
163 163 305 311 315 329 21 39 13 78 -19 100 -12 8 -109 33 -215 56 l-193 42
101 102 c82 84 100 107 100 132 0 40 -27 71 -68 79 -31 6 -38 1 -137 -97 -58
-56 -106 -101 -108 -98 -2 2 -23 92 -46 199 -27 127 -48 201 -59 212 -22 21
-61 30 -87 18z m20 -406 l35 -158 -222 -223 c-123 -123 -225 -223 -228 -223
-3 0 -20 72 -39 161 l-34 161 224 224 c123 123 224 222 226 220 2 -2 19 -74
38 -162z m323 -314 c83 -18 152 -36 152 -39 0 -3 -99 -105 -220 -226 l-219
-219 -138 28 c-76 16 -151 32 -168 36 -30 7 -28 9 195 234 124 124 229 225
235 222 5 -2 79 -18 163 -36z m-1618 -355 c120 -25 226 -64 288 -105 75 -50
222 -178 222 -193 0 -6 -37 -48 -81 -93 l-81 -82 -64 45 c-82 57 -190 106
-295 135 -68 18 -110 22 -219 22 -109 0 -151 -4 -219 -22 -270 -73 -472 -239
-591 -487 -72 -149 -85 -210 -84 -395 0 -139 3 -164 27 -243 50 -162 124 -284
243 -398 176 -168 383 -251 624 -251 609 0 1044 594 858 1172 -26 81 -69 167
-121 244 l-39 58 78 79 79 79 23 -38 c80 -129 145 -291 178 -444 25 -116 25
-371 1 -488 -55 -257 -172 -475 -352 -655 -86 -87 -254 -210 -320 -235 -92
-35 -187 -52 -331 -57 -182 -7 -280 5 -421 52 -192 64 -327 148 -474 294 -554
552 -433 1470 246 1869 123 72 295 131 440 151 93 13 292 6 385 -14z m-46
-455 c76 -19 209 -82 255 -121 l25 -20 -115 -115 -115 -115 -56 26 c-213 97
-451 11 -549 -199 -59 -127 -48 -273 31 -394 43 -67 95 -112 177 -150 52 -24
70 -27 163 -27 97 0 110 2 170 31 82 40 136 87 177 155 76 127 81 275 15 405
l-21 41 118 117 118 118 46 -73 c119 -194 147 -431 74 -632 -116 -318 -403
-511 -737 -494 -493 23 -821 521 -650 988 81 223 274 399 502 459 102 26 269
27 372 0z m-108 -480 l28 -11 -92 -92 c-77 -77 -92 -98 -92 -124 0 -45 9 -62
42 -79 46 -24 74 -10 170 84 94 92 105 95 110 27 6 -95 -15 -156 -73 -213
-125 -122 -326 -81 -373 77 -28 96 -14 222 33 275 45 53 177 82 247 56z m1044
-1660 l0 -650 -190 0 -190 0 0 469 0 469 58 43 c74 55 222 199 274 267 22 28
42 52 44 52 2 0 4 -292 4 -650z m-1147 73 l147 -6 0 -359 0 -358 -190 0 -190
0 0 371 0 372 43 -7 c23 -3 108 -9 190 -13z"/>
<path d="M4139 2911 l-29 -29 0 -1357 0 -1356 25 -24 24 -25 301 0 301 0 24
25 25 24 0 1355 c0 745 -3 1362 -6 1371 -16 41 -50 45 -349 45 l-287 0 -29
-29z m511 -1381 l0 -1250 -190 0 -190 0 0 1250 0 1250 190 0 190 0 0 -1250z"/>
<path d="M3153 2420 c-12 -5 -26 -18 -32 -29 -8 -14 -11 -362 -11 -1124 l0
-1104 23 -21 c23 -22 29 -22 325 -22 286 0 303 1 321 19 11 11 23 35 26 53 3
18 4 518 3 1110 l-3 1077 -23 23 c-22 23 -25 23 -315 25 -160 1 -302 -2 -314
-7z m495 -1147 l2 -993 -190 0 -190 0 0 995 0 995 188 -2 187 -3 3 -992z"/>
<path d="M105 755 l-25 -24 0 -281 0 -281 25 -24 24 -25 301 0 301 0 24 25 25
24 0 281 0 281 -25 24 -24 25 -301 0 -301 0 -24 -25z m495 -305 l0 -170 -180
0 -180 0 0 170 0 170 180 0 180 0 0 -170z"/>
</g>
</svg>
